<?xml version="1.0" standalone="no"?><!DOCTYPE svg PUBLIC "-//W3C//DTD SVG 1.1//EN" "http://www.w3.org/Graphics/SVG/1.1/DTD/svg11.dtd"><svg t="1543980714342" class="icon" style="" viewBox="0 0 1024 1024" version="1.1" xmlns="http://www.w3.org/2000/svg" p-id="8305" xmlns:xlink="http://www.w3.org/1999/xlink" width="200" height="200"><defs><style type="text/css"></style></defs><path d="M582.4 569.6s-19.2-6.4-6.4-51.2c32-32 57.6-89.6 57.6-147.2 0-83.2-57.6-128-121.6-128s-121.6 44.8-121.6 128c0 57.6 25.6 108.8 57.6 147.2 12.8 32 0 44.8-12.8 51.2-70.4 25.6-147.2 70.4-147.2 115.2v19.2c0 57.6 115.2 76.8 224 76.8s224-12.8 224-76.8v-19.2c0-44.8-76.8-89.6-153.6-115.2z" p-id="8306" fill="#1296db"></path></svg>